<svg xmlns="http://www.w3.org/2000/svg" version="1.1" xmlns:xlink="http://www.w3.org/1999/xlink" xmlns:svgjs="http://svgjs.dev/svgjs" width="8" height="9"><svg width="8" height="9" viewBox="0 0 8 9" fill="none" xmlns="http://www.w3.org/2000/svg">
<path d="M3.936 8.162C3.308 8.162 2.74 7.998 2.232 7.67C1.728 7.338 1.326 6.876 1.026 6.284C0.726 5.688 0.576 4.992 0.576 4.196C0.576 3.556 0.668 2.984 0.852 2.48C1.04 1.976 1.3 1.55 1.632 1.202C1.964 0.854 2.35 0.59 2.79 0.409999C3.234 0.225999 3.712 0.133999 4.224 0.133999C4.912 0.133999 5.496 0.281999 5.976 0.577999C6.456 0.873999 6.84 1.34 7.128 1.976L5.832 2.306C5.612 1.974 5.362 1.724 5.082 1.556C4.806 1.384 4.498 1.298 4.158 1.298C3.758 1.298 3.39 1.416 3.054 1.652C2.722 1.884 2.456 2.216 2.256 2.648C2.056 3.08 1.956 3.596 1.956 4.196C1.956 4.748 2.042 5.234 2.214 5.654C2.386 6.07 2.628 6.396 2.94 6.632C3.252 6.868 3.618 6.986 4.038 6.986C4.382 6.986 4.69 6.91 4.962 6.758C5.234 6.602 5.448 6.376 5.604 6.08C5.764 5.78 5.844 5.416 5.844 4.988H6.15C6.15 5.632 6.072 6.192 5.916 6.668C5.764 7.144 5.524 7.512 5.196 7.772C4.872 8.032 4.452 8.162 3.936 8.162ZM6.036 8L5.844 6.266V4.946L4.05 4.904V4.076H7.08V8H6.036Z" fill="black"></path>
</svg><style>@media (prefers-color-scheme: light) { :root { filter: none; } }
@media (prefers-color-scheme: dark) { :root { filter: none; } }
</style></svg>